<?xml version="1.0" standalone="no"?>
<!DOCTYPE svg PUBLIC "-//W3C//DTD SVG 20010904//EN"
 "http://www.w3.org/TR/2001/REC-SVG-20010904/DTD/svg10.dtd">
<svg version="1.0" xmlns="http://www.w3.org/2000/svg"
 width="428.000000pt" height="428.000000pt" viewBox="0 0 428.000000 428.000000"
 preserveAspectRatio="xMidYMid meet">
<metadata>
Created by potrace 1.13, written by Peter Selinger 2001-2015
</metadata>
<g transform="translate(0.000000,428.000000) scale(0.100000,-0.100000)"
fill="#000000" stroke="none">
<path d="M2129 2755 c-8 -18 -13 -75 -13 -147 0 -64 -4 -114 -9 -111 -17 10
-58 106 -64 149 -3 25 -9 41 -14 37 -25 -26 -40 -399 -19 -472 5 -19 8 -36 6
-38 -2 -2 -40 34 -85 79 -98 99 -141 169 -157 258 -10 53 -12 58 -13 27 -1
-43 24 -216 39 -267 5 -19 10 -37 10 -39 0 -2 -13 14 -28 35 -40 54 -94 100
-136 114 -44 14 -157 147 -186 217 -15 38 -19 43 -19 22 -1 -41 92 -175 179
-257 l35 -33 -45 6 c-25 4 -73 14 -108 22 -70 17 -63 1 -64 148 0 66 0 68 -9
30 -6 -22 -9 -59 -7 -82 5 -73 -8 -55 -63 82 -35 86 -38 72 -5 -24 23 -68 23
-72 5 -66 -66 18 -61 12 -54 78 3 34 9 71 11 82 4 16 3 17 -4 5 -5 -8 -13 -42
-17 -75 -3 -33 -9 -71 -12 -85 -3 -17 -2 -21 5 -12 13 19 94 -3 111 -30 7 -11
11 -21 9 -23 -5 -6 -102 16 -113 26 -14 11 -36 -24 -25 -40 5 -9 9 -7 12 7 6
21 6 21 67 2 34 -11 107 -29 164 -40 206 -41 236 -56 282 -140 l36 -65 -6 50
c-3 28 -13 82 -21 122 -19 89 -14 111 14 58 20 -39 207 -233 216 -224 2 2 -2
36 -9 74 -20 105 -16 415 6 415 5 0 9 -10 9 -22 0 -27 61 -137 91 -163 l22
-20 -7 30 c-20 77 -25 153 -15 215 5 35 11 66 13 67 1 1 10 -15 20 -37 20 -46
99 -136 151 -171 19 -13 33 -29 31 -35 -3 -7 3 -10 13 -7 10 2 23 -3 30 -11
11 -14 3 -20 -63 -50 -42 -19 -76 -37 -76 -40 0 -2 36 12 81 32 77 34 81 35
107 20 39 -24 38 -36 -5 -43 -129 -22 -291 -78 -310 -108 -3 -5 5 -3 18 4 20
10 18 6 -10 -27 l-35 -39 140 -3 c215 -5 213 -5 319 99 50 49 96 89 102 89 16
0 25 -60 32 -215 l6 -140 20 82 c24 103 40 87 31 -31 -8 -93 -49 -255 -112
-435 -58 -167 -127 -257 -334 -438 -260 -228 -342 -251 -470 -132 -30 28 -107
93 -170 144 -131 106 -226 200 -265 263 -14 24 -57 137 -95 250 -37 114 -75
221 -84 237 -25 47 -19 52 19 15 44 -42 44 -33 0 100 -39 122 -45 122 -12 -2
l23 -86 -22 16 c-12 10 -41 45 -65 80 -66 95 -74 103 -40 41 27 -50 121 -272
121 -287 0 -3 -14 9 -31 28 -30 34 -30 34 -14 5 10 -16 27 -40 38 -52 l20 -23
-20 0 c-30 0 -46 -25 -38 -57 6 -27 6 -27 -15 -8 -11 10 -34 41 -51 69 -16 28
-45 73 -64 100 -20 27 -35 60 -35 75 1 25 2 24 21 -11 11 -21 21 -38 23 -38 1
0 1 57 -2 126 -3 89 -1 128 7 133 8 5 8 17 -3 47 l-14 39 1 -40 c3 -89 -3
-248 -10 -242 -3 4 -12 28 -19 54 l-13 48 0 -88 c-1 -49 3 -86 7 -83 4 2 28
-27 52 -66 82 -127 103 -152 165 -185 53 -28 61 -37 76 -80 26 -76 55 -125
117 -197 53 -61 158 -156 173 -156 16 0 72 -240 110 -475 23 -142 98 -386 153
-497 l34 -68 -27 0 c-45 0 -116 27 -113 41 17 67 15 77 -46 182 -34 57 -70
126 -80 153 -27 70 -51 200 -61 339 l-10 120 3 -108 3 -107 -51 -24 c-28 -13
-107 -66 -175 -117 -195 -147 -263 -188 -447 -268 -109 -47 -129 -59 -121 -72
7 -11 3 -30 -13 -65 -13 -27 -24 -52 -24 -56 -1 -3 -4 -10 -8 -14 -5 -4 -8
-17 -9 -28 -1 -27 -37 -106 -38 -83 -1 9 -6 17 -12 17 -6 0 -8 -7 -5 -17 6
-15 5 -15 -13 1 -11 10 -25 15 -32 10 -9 -5 -6 -10 10 -15 32 -12 35 -32 13
-78 -20 -40 -17 -52 6 -29 9 9 12 9 12 0 0 -9 143 -12 613 -12 l612 1 -110 34
c-149 46 -335 121 -364 148 -32 30 -116 137 -175 225 -38 56 -50 82 -52 117
-2 41 1 48 30 70 18 14 35 25 38 25 3 0 2 -19 -2 -42 -10 -51 -4 -122 12 -151
6 -12 40 -56 76 -99 49 -58 77 -83 121 -103 97 -47 215 -93 251 -99 19 -3 28
-3 20 0 -8 4 -60 24 -115 46 -161 63 -183 75 -216 121 -51 70 -119 217 -127
278 l-8 56 39 33 c21 18 62 47 90 64 29 18 74 46 101 64 57 37 66 39 66 15 -1
-11 -25 -33 -57 -53 -31 -19 -80 -54 -108 -77 -29 -23 -55 -39 -59 -36 -3 4
-6 -5 -6 -19 0 -57 102 -178 225 -267 167 -121 257 -145 540 -146 121 0 188 4
205 12 l25 13 -29 -3 c-25 -2 -30 3 -42 37 -14 40 -31 66 -43 66 -4 0 -13 -15
-19 -34 -22 -61 -49 -86 -93 -86 -21 0 -39 4 -39 8 0 5 11 42 25 83 14 41 34
110 45 154 26 110 93 319 135 420 39 94 99 296 110 367 6 40 17 57 87 130 44
45 93 102 110 126 16 24 31 42 33 40 2 -2 -13 -84 -34 -183 -21 -99 -46 -227
-56 -285 -21 -124 -63 -235 -181 -478 -46 -95 -84 -176 -84 -181 0 -14 59
-129 69 -136 6 -3 11 -15 11 -26 0 -10 7 -19 15 -19 8 0 15 5 15 11 0 5 4 7
10 4 5 -3 20 1 32 9 12 9 19 16 15 16 -4 0 52 40 125 89 73 50 134 88 137 85
2 -2 -6 -16 -20 -31 -13 -15 4 -3 38 26 95 80 197 193 228 254 l29 54 -24 33
c-23 32 -23 32 -1 21 12 -7 27 -21 34 -31 6 -11 16 -20 21 -20 5 0 15 -8 22
-17 12 -16 12 -16 7 5 -9 38 20 16 55 -41 18 -29 32 -56 32 -60 0 -23 -201
-257 -350 -408 -90 -91 -210 -168 -320 -205 l-55 -19 559 -3 c308 -1 563 1
567 5 4 5 10 19 13 33 4 22 60 177 90 252 5 15 14 24 18 22 4 -3 9 1 10 8 7
66 31 104 61 99 5 -1 6 3 2 9 -3 6 -11 8 -16 5 -13 -9 -11 7 5 27 7 10 17 14
21 10 5 -4 5 1 2 10 -5 13 0 19 18 24 14 3 23 10 20 14 -5 9 89 62 99 55 3 -3
4 -2 1 2 -3 3 18 21 45 40 28 18 50 39 50 45 0 6 -10 2 -22 -9 -13 -11 -61
-43 -106 -72 l-84 -52 -51 15 c-29 8 -169 54 -312 103 -237 82 -301 109 -499
215 -28 15 -58 28 -66 28 -18 0 -37 35 -80 140 l-30 75 15 210 c9 119 22 234
31 265 9 30 19 73 21 95 4 31 12 44 36 60 17 11 42 36 55 55 l25 35 -7 -40
c-3 -22 -6 -53 -6 -69 l0 -28 -19 23 -19 24 -16 -40 c-9 -21 -19 -50 -23 -63
-4 -18 -8 -21 -14 -10 -7 10 -9 10 -8 -2 1 -8 4 -26 8 -39 5 -19 11 -10 29 53
13 42 28 74 33 71 5 -4 9 -12 9 -18 0 -7 9 -25 19 -41 l19 -28 -5 45 c-9 81
14 201 52 265 18 31 41 82 50 112 10 30 28 84 41 120 13 36 26 79 29 95 3 17
-3 6 -14 -23 -10 -29 -21 -55 -24 -58 -2 -3 -7 41 -9 98 -4 77 0 127 14 197
10 51 17 99 15 105 -2 6 -10 -16 -16 -49 -13 -60 -34 -141 -53 -203 -10 -35
-28 -34 -28 1 0 12 -10 42 -21 67 -14 29 -21 64 -21 100 0 51 -1 48 -17 -40
-22 -119 -24 -127 -74 -230 l-41 -85 -7 50 c-5 27 -11 61 -15 75 -6 22 -8 19
-19 -25 l-12 -50 -6 35 c-3 19 -10 69 -16 110 -5 41 -19 95 -30 120 -11 25
-20 65 -20 90 0 43 -48 217 -57 207 -3 -2 6 -42 19 -88 14 -46 25 -113 26
-149 l2 -64 -39 59 c-21 33 -67 89 -102 125 -35 36 -54 54 -44 40 10 -14 22
-27 25 -30 36 -32 164 -208 157 -215 -2 -2 -35 -6 -74 -10 l-71 -7 -7 32 c-3
18 -3 36 0 41 3 5 1 9 -5 9 -11 0 -55 127 -72 210 -7 30 -14 50 -16 43 -4 -12
24 -135 50 -215 22 -68 3 -68 -92 3 -97 73 -155 138 -180 204 l-19 50 -13 -30z
m797 -431 c9 -42 14 -92 11 -112 -4 -21 -9 -57 -12 -82 -4 -40 -4 -41 5 -15 5
17 15 59 21 95 6 36 16 79 22 95 l12 30 5 -29 c8 -48 -7 -227 -24 -281 -22
-72 -152 -274 -179 -280 -74 -17 -112 -23 -115 -21 -1 2 5 31 14 65 12 42 22
61 33 61 26 0 58 27 92 76 42 61 32 65 -15 6 -37 -47 -74 -78 -82 -69 -3 3 0
26 7 51 8 34 24 59 58 91 l46 44 0 73 c0 58 5 81 23 111 12 21 18 35 12 32
-12 -8 -12 -5 0 31 5 16 14 48 20 72 6 23 15 40 20 37 5 -3 16 -39 26 -81z"/>
<path d="M1194 2382 c-8 -95 -8 -107 9 -129 10 -13 28 -28 40 -34 16 -9 14 -3
-10 23 -18 19 -33 42 -33 52 0 14 13 6 53 -30 77 -71 138 -99 212 -99 63 0
215 41 215 58 0 5 -7 6 -16 3 -8 -3 -13 -2 -10 3 8 12 -23 38 -74 60 -45 19
-138 34 -298 47 l-84 6 7 37 c8 45 9 45 34 31 20 -10 21 -9 15 17 -8 34 -14
42 -14 20 0 -9 -7 -17 -15 -17 -21 0 -19 38 3 42 14 3 14 5 -4 10 -20 5 -22 0
-30 -100z"/>
<path d="M3990 700 c-14 -10 -25 -25 -25 -32 0 -7 -11 -53 -25 -102 -24 -88
-24 -89 -87 -138 -35 -27 -63 -56 -63 -63 0 -8 10 -30 22 -50 13 -23 17 -39
11 -43 -17 -11 -53 -75 -53 -94 0 -10 7 -18 15 -18 22 0 18 -13 -10 -38 -13
-12 -27 -33 -31 -47 -4 -17 -13 -25 -28 -25 -11 0 -41 -10 -66 -23 l-45 -22
93 -3 c51 -1 131 -1 177 0 l83 3 -26 30 c-14 17 -23 22 -19 13 3 -10 2 -18 -3
-18 -10 0 -14 20 -12 53 2 12 -8 23 -28 30 -28 11 -30 15 -28 57 1 43 2 44 5
7 6 -52 24 -46 21 8 -1 33 5 54 25 82 25 37 49 88 51 108 1 6 15 9 31 8 17 -1
51 -3 78 -5 33 -2 46 -7 42 -15 -6 -16 4 -16 35 1 15 9 32 11 46 6 13 -5 38
-3 65 5 l44 14 -50 -3 c-27 -2 -40 -1 -27 1 35 7 26 21 -15 26 l-38 4 43 1
c23 1 42 -2 42 -8 0 -5 5 -10 11 -10 17 0 1 18 -30 33 -20 10 -33 11 -39 5
-12 -12 -35 -1 -27 12 7 11 -97 24 -125 15 -17 -5 -21 -4 -18 6 7 19 72 15
179 -10 85 -20 118 -20 61 0 -32 11 -44 41 -22 54 22 14 8 25 -30 25 -27 0
-43 -5 -47 -15 -5 -14 -8 -14 -30 0 -36 24 -115 16 -147 -14 l-25 -23 2 22 c1
13 9 25 19 28 10 2 16 8 13 12 -3 5 9 11 26 15 32 7 29 19 -6 28 -20 5 44 11
78 8 25 -3 21 8 -8 19 -16 6 -41 6 -65 1 -46 -10 -54 5 -22 37 15 15 37 63 29
62 -1 0 -13 -9 -27 -20z"/>
<path d="M3012 658 c-31 -56 -63 -95 -149 -187 -29 -31 -51 -62 -48 -68 2 -7
1 -12 -3 -11 -14 5 -63 -35 -58 -47 5 -15 -47 -68 -57 -58 -4 3 -7 1 -7 -5 0
-6 -7 -18 -16 -26 -31 -32 5 -15 58 26 176 137 272 251 297 353 7 28 15 56 17
63 7 25 -5 11 -34 -40z"/>
<path d="M375 132 c13 -9 18 -35 5 -27 -5 3 -10 2 -10 -2 0 -5 -10 -20 -22
-33 -66 -74 -64 -70 -35 -68 15 1 29 10 32 19 3 10 13 20 22 24 15 5 15 4 0
-13 -9 -10 -17 -22 -17 -26 0 -4 36 -6 80 -5 44 1 80 4 80 6 0 29 -101 133
-129 133 -9 0 -12 -3 -6 -8z"/>
</g>
</svg>
